<?xml version="1.0" encoding="utf-8"?>
<svg xmlns="http://www.w3.org/2000/svg" viewBox="242.7996 49.8355 578.1917 630.4445" width="578.192px" height="630.444px" preserveAspectRatio="none"><path d="M 1147.95 73.344 C 1152.13 74.699 1155.14 77.752 1157.97 81 C 1160.36 84.559 1161.99 88.204 1163.54 92.188 C 1163.95 93.233 1164.37 94.278 1164.8 95.355 C 1167.36 103.245 1168.37 110.91 1168.36 119.188 C 1168.36 120.544 1168.36 120.544 1168.36 121.927 C 1168.21 130.535 1166.87 139.213 1162.97 147 C 1159.97 145.565 1157.21 143.908 1154.41 142.125 C 1144.52 136.262 1135.73 134.424 1124.33 133.946 C 1119.97 133.682 1117.51 133.343 1113.79 130.934 C 1111.97 128 1111.97 128 1111.93 124.301 C 1112.91 119.39 1114.74 114.799 1116.66 110.188 C 1117.03 109.306 1117.38 108.425 1117.76 107.516 C 1122.81 95.378 1128.77 82.711 1139.93 75.047 C 1142.71 73.62 1144.85 73.098 1147.95 73.344 Z M 960 74 C 966.348 76.604 971.237 82.443 975.047 87.969 C 979.063 94.631 982.183 101.478 984.938 108.75 C 985.379 109.901 985.379 109.901 985.83 111.075 C 987.808 116.57 989.305 122.115 989 128 C 987.621 131.094 987.621 131.094 985 133 C 982.012 133.606 979.102 133.549 976.063 133.5 C 963.44 133.736 953.383 137.853 943 145 C 940.913 146.598 938.961 148.246 937 150 C 936.34 149.67 935.68 149.34 935 149 C 929.58 137.844 929.785 124.792 931.281 112.734 C 933.505 99.064 939.878 86.6 949.336 76.539 C 952.694 73.434 955.537 73.697 960 74 Z M 794.206 411.12 L 884.179 411.408 C 884.342 400.767 885.699 394.187 891.848 385.19 C 896.177 379.533 901.279 374.234 908.161 371.94 C 909.23 369.42 909.23 369.42 909.161 365.94 C 907.849 363.377 906.346 361.062 904.704 358.698 C 901.328 352.665 900.77 346.283 900.786 339.503 C 900.787 338.759 900.789 338.016 900.791 337.25 C 900.921 331.412 901.986 326.914 905.161 321.94 C 905.841 320.827 906.522 319.713 907.223 318.565 C 909.161 315.94 909.161 315.94 910.911 314.44 C 912.393 312.91 912.393 312.91 912.661 310.253 C 912.171 307.01 911.658 305.885 909.911 303.253 C 903.759 293.841 902.537 285.245 902.62 274.148 C 902.919 265.143 904.604 257.776 910.051 250.37 C 911.278 248.859 912.514 247.356 913.762 245.862 C 915.397 243.888 915.397 243.888 915.848 240.753 C 914.981 237.205 913.2 234.971 911.161 231.94 C 908.473 225.208 907.639 218.768 907.723 211.565 C 907.732 210.647 907.74 209.729 907.748 208.783 C 908.017 197.971 911.066 189.59 917.098 180.62 C 921.841 174.458 927.209 168.575 934.161 164.94 C 935.677 164.498 935.677 164.498 937.223 164.046 C 940.76 162.715 941.896 161.235 944.161 158.253 C 950.305 151.069 957.924 147.546 966.907 144.792 C 971.941 143.62 977.012 143.486 982.161 143.315 C 983.126 143.277 984.092 143.238 985.087 143.198 C 987.444 143.105 989.802 143.019 992.161 142.94 C 992.434 142.183 992.707 141.425 992.989 140.644 C 996.166 133.316 1003.44 129.162 1009.98 125.077 C 1011.7 124.023 1013.43 122.981 1015.16 121.94 C 1016.19 121.287 1016.19 121.287 1017.25 120.62 C 1037.25 109.124 1065.7 111.865 1085.66 121.69 C 1094.09 126.09 1101.13 131.107 1106.72 138.878 C 1108.57 141.265 1108.57 141.265 1111.16 142.94 C 1116.19 143.869 1121.05 143.933 1126.15 143.919 C 1135.45 144.018 1143.26 147.209 1151.16 151.94 C 1154.48 154.351 1156.77 156.555 1158.97 160.003 C 1161.05 162.904 1161.05 162.904 1163.97 164.843 C 1165.3 165.251 1166.63 165.658 1167.95 166.062 C 1174.56 168.691 1179.86 174.141 1184.04 179.753 C 1189.34 187.92 1191.81 196.265 1192.16 205.94 C 1192.26 207.454 1192.26 207.454 1192.35 208.999 C 1192.67 217.654 1191.52 226.305 1187.01 233.878 C 1186.64 234.373 1186.28 234.868 1185.91 235.378 C 1183.94 237.825 1183.94 237.825 1183.85 240.819 C 1184.21 244.44 1185.06 245.67 1187.35 248.44 C 1193.26 256.518 1196.31 264.879 1196.65 274.835 C 1196.7 286.245 1194.38 294.529 1188.37 304.3 C 1186.9 307.513 1186.68 309.442 1187.16 312.94 C 1188.77 315.662 1188.77 315.662 1190.97 318.19 C 1195.52 324.149 1197.75 329.224 1198.4 336.694 C 1198.66 346.66 1196.65 353.793 1191.4 362.265 C 1189.97 365.36 1189.93 367.567 1190.16 370.94 C 1190.72 371.292 1191.28 371.644 1191.85 372.007 C 1194.32 373.606 1196.74 375.258 1199.16 376.94 C 1199.87 377.424 1200.57 377.907 1201.29 378.405 C 1208.51 383.966 1212.33 392.435 1215.16 400.94 C 1215.16 404.752 1215.16 408.564 1215.16 412.467 L 1324.306 412.816 C 1326.196 413.461 1328.04 414.305 1329.836 415.391 C 1333.666 418.309 1336.346 421.883 1338.096 426.337 C 1338.656 429.905 1338.636 433.419 1338.606 437.026 C 1338.616 438.092 1338.626 439.157 1338.626 440.255 C 1338.646 443.819 1338.636 447.383 1338.626 450.947 C 1338.636 453.505 1338.646 456.063 1338.656 458.621 C 1338.676 464.844 1338.676 471.067 1338.666 477.29 C 1338.656 482.35 1338.656 487.41 1338.666 492.47 C 1338.666 493.191 1338.666 493.911 1338.666 494.654 C 1338.676 496.119 1338.676 497.583 1338.676 499.048 C 1338.696 512.774 1338.686 526.501 1338.666 540.228 C 1338.656 552.776 1338.666 565.324 1338.696 577.872 C 1338.726 590.767 1338.736 603.662 1338.726 616.557 C 1338.726 618.017 1338.726 619.476 1338.726 620.936 C 1338.726 621.654 1338.726 622.372 1338.726 623.112 C 1338.716 628.162 1338.726 633.213 1338.746 638.263 C 1338.766 645.067 1338.756 651.871 1338.736 658.676 C 1338.726 661.172 1338.726 663.667 1338.746 666.163 C 1338.756 669.573 1338.746 672.982 1338.726 676.393 C 1338.736 677.87 1338.736 677.87 1338.756 679.376 C 1338.676 685.278 1337.556 689.353 1334.566 694.454 C 1332.056 697.656 1328.826 699.78 1325.096 701.337 C 1324.106 701.337 1323.116 701.337 1322.096 701.337 C 1322.096 701.997 1322.096 702.657 1322.096 703.337 C 1270.426 703.388 1218.756 703.436 1167.086 703.464 C 1165.936 703.464 1165.936 703.464 1164.766 703.465 C 1148.156 703.474 1131.536 703.482 1114.926 703.49 C 1106.776 703.494 1098.626 703.497 1090.486 703.501 C 1089.676 703.502 1088.856 703.502 1088.026 703.503 C 1061.736 703.515 1035.446 703.538 1009.166 703.566 C 982.156 703.594 955.146 703.612 928.136 703.618 C 924.316 703.619 920.506 703.62 916.696 703.621 C 915.946 703.621 915.186 703.622 914.416 703.622 C 902.326 703.625 890.236 703.639 878.146 703.657 C 865.996 703.675 853.846 703.682 841.696 703.677 C 835.116 703.675 828.526 703.678 821.946 703.694 C 815.916 703.709 809.896 703.71 803.866 703.699 C 801.686 703.698 799.496 703.702 797.316 703.711 C 794.356 703.723 791.396 703.717 788.436 703.706 C 787.576 703.714 786.726 703.722 785.846 703.73 C 779.526 703.676 775.096 702.33 769.766 698.794 C 769.126 698.251 768.496 697.708 767.846 697.149 C 766.876 696.354 766.876 696.354 765.886 695.544 C 762.876 691.838 761.356 687.632 760.816 682.921 C 760.706 680.167 760.686 677.428 760.706 674.672 C 760.696 673.621 760.696 672.57 760.686 671.488 C 760.676 667.98 760.686 664.472 760.686 660.964 C 760.686 658.443 760.676 655.923 760.666 653.403 C 760.656 647.276 760.646 641.149 760.656 635.022 C 760.656 630.041 760.656 625.06 760.656 620.078 C 760.656 619.368 760.646 618.659 760.646 617.927 C 760.646 616.485 760.646 615.043 760.646 613.6 C 760.636 600.087 760.636 586.574 760.646 573.061 C 760.656 560.706 760.646 548.352 760.626 535.997 C 760.596 523.3 760.586 510.603 760.596 497.905 C 760.596 490.781 760.596 483.657 760.576 476.533 C 760.556 469.836 760.566 463.138 760.586 456.44 C 760.586 453.983 760.586 451.525 760.576 449.068 C 760.566 445.712 760.576 442.357 760.586 439.002 C 760.586 438.03 760.576 437.059 760.566 436.058 C 760.626 429.95 761.716 425.473 765.096 420.337 C 767.056 418.094 767.056 418.094 769.026 416.462 C 769.676 415.907 770.326 415.353 770.996 414.782 C 775.426 411.727 779.226 411.107 784.486 411.088 C 785.326 411.095 786.156 411.102 787.016 411.11 C 787.906 411.109 788.786 411.109 789.706 411.109 C 791.208 411.11 792.707 411.114 794.206 411.12 Z M 1148.466 564.524 C 1147.786 565.103 1147.126 565.665 1146.466 566.227 C 1145.256 567.219 1145.256 567.219 1144.076 568.192 C 1141.536 570.307 1138.966 572.36 1136.366 574.398 C 1135.756 574.871 1135.176 575.33 1134.586 575.789 C 1130.026 579.378 1125.446 582.945 1120.836 586.477 C 1116.956 589.45 1113.096 592.448 1109.256 595.48 C 1103.696 599.876 1098.086 604.185 1092.396 608.414 C 1088.336 611.427 1084.306 614.465 1080.406 617.692 C 1079.136 618.747 1077.866 619.801 1076.586 620.852 C 1069.406 626.622 1062.546 632.226 1053.026 632.899 C 1045.536 633.132 1038.506 633.067 1031.946 628.988 C 1031.116 628.368 1030.316 627.766 1029.526 627.164 C 1028.036 626.05 1026.546 624.934 1025.066 623.806 C 1023.836 622.861 1022.606 621.918 1021.366 620.976 C 1018.466 618.763 1015.556 616.548 1012.666 614.325 C 1009.526 611.913 1006.376 609.509 1003.216 607.133 C 997.276 602.715 991.416 598.218 985.586 593.664 C 979.736 589.096 973.856 584.591 967.896 580.164 C 963.186 576.672 958.626 573.082 954.146 569.289 C 951.736 567.182 949.846 565.68 946.876 564.504 C 944.336 564.477 944.336 564.477 941.716 565.961 C 940.756 566.731 939.826 567.479 938.896 568.227 C 937.826 569.069 936.766 569.911 935.706 570.754 C 934.026 572.111 932.356 573.463 930.656 574.794 C 925.916 578.478 921.186 582.182 916.506 585.943 C 909.526 591.568 902.526 597.129 895.336 602.477 C 890.726 605.902 886.166 609.375 881.686 612.977 C 875.286 618.155 868.796 623.186 862.186 628.106 C 853.586 634.514 845.116 641.089 836.646 647.676 C 835.176 648.825 833.696 649.974 832.216 651.123 C 831.176 651.935 831.176 651.935 830.146 652.731 C 828.736 653.834 827.316 654.936 825.896 656.039 C 821.936 659.12 817.966 662.2 814.016 665.29 C 812.496 666.476 810.976 667.661 809.456 668.846 C 808.696 669.443 807.956 670.022 807.206 670.602 C 803.496 673.502 799.786 676.397 796.006 679.208 C 795.216 679.789 794.446 680.354 793.686 680.918 C 792.216 682.002 790.746 683.084 789.266 684.164 C 787.946 685.12 786.616 686.082 785.296 687.051 C 782.336 689.477 782.336 689.477 781.336 692.477 C 963.916 692.477 1141.126 692.477 1318.336 692.477 C 1318.336 691.797 1318.336 691.137 1318.336 690.477 C 1302.756 679.337 1302.756 679.337 1287.656 667.539 C 1285.096 665.583 1282.536 663.627 1279.966 661.676 C 1272.496 656.004 1265.076 650.301 1257.776 644.414 C 1252.766 640.373 1247.686 636.445 1242.526 632.602 C 1236.756 628.315 1231.056 623.959 1225.396 619.539 C 1220.196 615.477 1214.986 611.431 1209.736 607.428 C 1203.906 602.984 1198.086 598.521 1192.336 593.977 C 1187.206 589.926 1182.036 585.937 1176.836 581.977 C 1173.296 579.29 1169.756 576.608 1166.286 573.846 C 1165.276 573.036 1165.276 573.036 1164.286 572.242 C 1163.026 571.238 1161.776 570.233 1160.526 569.227 C 1157.866 567.05 1155.346 564.932 1152.196 563.508 C 1150.336 563.477 1150.336 563.477 1148.466 564.524 Z M 780.336 424.477 C 791.366 434.014 791.366 434.014 840.816 470.3 C 848.516 475.947 856.216 481.578 863.776 487.415 C 868.246 490.884 872.756 494.307 877.296 497.702 C 884.266 502.917 891.226 508.145 898.156 513.422 C 899.046 514.099 899.906 514.757 900.776 515.415 C 904.296 518.101 907.816 520.788 911.336 523.477 C 920.126 530.197 928.846 537.016 937.836 543.477 C 949.946 552.416 949.946 552.416 961.876 561.597 C 962.716 562.236 963.526 562.857 964.336 563.477 C 969.496 567.421 974.666 571.348 979.746 575.403 C 990.496 584.073 1001.526 592.391 1012.586 600.665 C 1016.376 603.498 1020.166 606.336 1023.906 609.239 C 1025.026 610.111 1026.156 610.982 1027.276 611.852 C 1029.296 613.392 1031.316 614.934 1033.336 616.477 C 1034.836 617.708 1036.356 618.92 1037.896 620.102 C 1041.506 622.477 1044.346 622.857 1048.646 622.915 C 1054.666 622.655 1058.246 621.788 1063.126 618.165 C 1063.876 617.591 1064.606 617.034 1065.336 616.477 C 1072.346 611.143 1072.346 611.143 1087.336 599.477 C 1092.056 595.805 1096.766 592.136 1101.506 588.497 C 1105.816 585.199 1110.096 581.886 1114.356 578.53 C 1121.596 572.816 1128.906 567.193 1136.246 561.598 C 1138.736 559.699 1141.226 557.797 1143.706 555.887 C 1147.556 552.924 1151.396 549.958 1155.256 547.01 C 1162.566 541.43 1169.876 535.846 1177.126 530.187 C 1183.506 525.205 1189.916 520.259 1196.396 515.415 C 1201.136 511.882 1205.856 508.326 1210.536 504.726 C 1218.786 498.383 1227.126 492.169 1235.516 486.012 C 1239.506 483.089 1243.486 480.158 1247.466 477.224 C 1252.226 473.713 1256.996 470.201 1261.756 466.695 C 1269.976 460.654 1278.186 454.608 1286.336 448.477 C 1289.806 445.859 1293.286 443.246 1296.796 440.677 C 1297.676 440.036 1298.526 439.415 1299.376 438.793 C 1301.096 437.542 1302.806 436.29 1304.526 435.04 C 1305.346 434.443 1306.156 433.863 1306.956 433.284 C 1307.736 432.713 1308.496 432.16 1309.256 431.606 C 1312.716 429.099 1312.716 429.099 1318.336 423.477 C 1135.416 423.477 957.876 423.477 780.336 423.477 C 780.336 423.817 780.336 424.147 780.336 424.477 Z M 1323.556 433.707 C 1322.806 434.309 1322.066 434.893 1321.336 435.477 C 1320.466 436.153 1319.616 436.809 1318.766 437.465 C 1306.166 447.245 1293.276 456.651 1280.336 465.977 C 1272.556 471.58 1264.826 477.251 1257.116 482.95 C 1254.736 484.703 1252.366 486.454 1249.986 488.199 C 1240.816 494.92 1231.686 501.698 1222.646 508.602 C 1217.146 512.809 1211.646 517.01 1206.096 521.152 C 1199.786 525.857 1193.536 530.631 1187.336 535.477 C 1183.576 538.426 1179.826 541.376 1175.986 544.217 C 1175.186 544.798 1174.416 545.362 1173.646 545.926 C 1172.166 547.007 1170.686 548.087 1169.216 549.165 C 1166.816 550.867 1164.586 552.574 1162.336 554.477 C 1162.336 555.497 1162.336 556.487 1162.336 557.477 C 1163.396 558.406 1163.396 558.406 1164.436 559.317 C 1165.966 560.4 1167.496 561.485 1169.016 562.583 C 1169.596 563.004 1170.156 563.412 1170.716 563.821 C 1173.846 566.091 1176.876 568.464 1179.886 570.886 C 1186.646 576.355 1193.476 581.727 1200.396 587.001 C 1201.376 587.747 1201.376 587.747 1202.336 588.477 C 1209.336 593.814 1216.336 599.147 1223.336 604.477 C 1226.106 606.583 1228.866 608.69 1231.636 610.797 C 1232.556 611.495 1233.446 612.174 1234.336 612.852 C 1240.036 617.192 1245.726 621.539 1251.396 625.915 C 1254.326 628.174 1257.256 630.42 1260.226 632.625 C 1265.176 636.293 1270.046 640.021 1274.806 643.926 C 1283.536 651.093 1292.456 657.984 1301.466 664.797 C 1303.736 666.517 1306.016 668.237 1308.296 669.964 C 1308.886 670.412 1309.456 670.847 1310.026 671.282 C 1311.066 672.071 1312.076 672.836 1313.086 673.602 C 1317.196 676.718 1317.196 676.718 1327.336 683.477 C 1327.336 598.137 1327.336 515.307 1327.336 432.477 C 1325.336 432.477 1325.336 432.477 1323.556 433.707 Z M 773.336 682.477 C 774.016 682.477 774.676 682.477 775.336 682.477 C 776.846 681.366 778.356 680.245 779.826 679.075 C 781.056 678.076 782.296 677.081 783.536 676.09 C 784.516 675.311 784.516 675.311 785.476 674.547 C 787.856 672.647 790.246 670.762 792.656 668.907 C 800.606 662.829 808.476 656.669 816.336 650.477 C 828.096 641.21 839.946 632.069 851.836 622.977 C 856.926 619.088 862.006 615.196 867.086 611.29 C 869.166 609.685 871.246 608.081 873.336 606.477 C 883.706 598.52 894.026 590.507 904.336 582.477 C 905.896 581.258 907.466 580.039 909.026 578.821 C 910.566 577.623 912.106 576.425 913.646 575.227 C 917.206 572.448 920.766 569.663 924.366 566.942 C 925.026 566.445 925.676 565.963 926.316 565.481 C 927.506 564.583 928.706 563.686 929.896 562.79 C 933.216 560.322 935.026 559.411 936.336 555.477 C 928.226 549.395 920.116 543.313 912.006 537.231 C 910.696 536.25 909.396 535.27 908.086 534.29 C 904.826 531.844 901.566 529.399 898.306 526.958 C 891.556 521.915 884.816 516.868 878.146 511.727 C 860.706 498.267 843.216 484.843 825.336 471.977 C 819.646 467.887 813.996 463.756 808.396 459.54 C 802.406 455.021 796.376 450.548 790.336 446.102 C 789.536 445.514 788.756 444.943 787.976 444.372 C 787.206 443.805 786.456 443.254 785.706 442.704 C 784.246 441.631 782.786 440.555 781.336 439.477 C 778.616 437.437 775.976 435.457 773.336 433.477 C 773.336 518.137 773.336 600.307 773.336 682.477 Z M 949 240 C 948.382 243.11 948.431 245.886 949 249 C 950.994 252.989 953.907 256.138 957.375 258.875 C 960.851 260.365 963.239 260.389 967 260 C 971.22 258.763 974.127 257.293 976.937 253.938 C 979.385 250.153 979.489 246.753 979.371 242.332 C 978.829 238.93 977.757 236.81 975.406 234.297 C 972.462 231.908 970.146 230.197 966.355 229.547 C 958.115 229.402 953.379 233.085 949 240 Z M 1124.37 233.34 C 1121.82 235.854 1120.23 237.897 1119.48 241.438 C 1119.31 245.582 1119.72 249.131 1121.56 252.875 C 1123.95 255.937 1125.71 257.64 1129.14 259.348 C 1133.04 260.714 1136.53 260.294 1140.5 259.5 C 1144.57 257.056 1147.57 254.099 1150 250 C 1150.98 245.419 1150.59 241.549 1148.94 237.188 C 1146.25 234.157 1143.7 231.722 1140 230 C 1134.26 229.037 1128.94 229.585 1124.37 233.34 Z M 1034 266.001 C 1033.63 269.001 1033.63 269.001 1034 272.001 C 1035.49 274.233 1035.49 274.233 1040.12 276.583 C 1041.1 277.065 1042.05 277.533 1043 278.001 C 1043.08 279.864 1043.16 281.727 1043.26 283.59 C 1043.3 284.367 1043.34 285.121 1043.38 285.876 C 1043.49 288.618 1043.69 291.266 1044 294.001 C 1044.68 294.681 1045.34 295.341 1046 296.001 C 1049.5 296.251 1049.5 296.251 1053 296.001 C 1053.68 295.321 1054.34 294.66 1055 294.001 C 1055.22 292.05 1055.43 290.097 1055.53 288.137 C 1055.56 287.368 1055.6 286.622 1055.63 285.876 C 1055.7 284.394 1055.78 282.912 1055.85 281.43 C 1055.9 280.264 1055.95 279.132 1056 278.001 C 1059 277.001 1059 277.001 1061.63 275.376 C 1064 273.001 1064 273.001 1065 269.438 C 1065 266.001 1065 266.001 1064 264.063 C 1062 263.001 1062 263.001 1058.63 262.563 C 1055 263.001 1055 263.001 1052.06 265.001 C 1051.36 265.68 1050.68 266.341 1050 267.001 C 1046.67 264.4 1044.55 263.066 1040.31 262.563 C 1036.89 263.015 1035.69 263.017 1034 266.001 Z M 1008.43 240.125 C 999.197 247.259 991.355 256.613 987.656 267.805 C 986.048 275.635 985.6 285.075 988.25 292.688 C 993.568 302.754 1000.73 310.748 1010.1 317.215 C 1024.24 325.913 1039.7 327.473 1055.92 327.203 C 1069.88 326.696 1084.16 320.59 1095.25 312.313 C 1103.31 305.475 1108.61 297.642 1111.39 287.422 C 1112.8 279.558 1113.08 271.287 1110.13 263.773 C 1104.11 250.946 1093.48 241.699 1081.31 234.688 C 1058.75 224.675 1028.89 226.06 1008.43 240.125 Z M 1074.75 244.188 C 1084.05 249.373 1092.91 255.712 1098.23 265.184 C 1100.89 271.968 1100.79 279.917 1099.68 287.047 C 1097.56 293.103 1093.11 300.045 1087.89 303.824 C 1087.25 304.224 1086.62 304.612 1086 305 C 1082.95 306.927 1079.88 308.689 1076.68 310.352 C 1063.9 316.343 1049.77 317.526 1035.91 315.563 C 1024.63 312.913 1013.9 307.274 1006.07 298.727 C 1001.84 293.153 999.469 287.606 998.566 280.664 C 998.296 273.642 999.172 267.946 1003 262 C 1008.75 254.059 1016.44 247.485 1025.59 243.844 C 1026.81 243.418 1026.81 243.418 1028 243 C 1042.48 237.887 1060.63 238.093 1074.75 244.188 Z" fill="#060606" style="stroke-width: 3px;" id="object-1" transform="matrix(1, 0, 0, 1, -517.7655029296875, -23.44996452331543)"/></svg>